<?xml version="1.0" encoding="utf-8"?>
<!-- Generator: Adobe Illustrator 25.1.0, SVG Export Plug-In . SVG Version: 6.00 Build 0)  -->
<svg version="1.1" id="Calque_1" xmlns="http://www.w3.org/2000/svg" xmlns:xlink="http://www.w3.org/1999/xlink" x="0px" y="0px"
	 viewBox="0 0 300 300" style="enable-background:new 0 0 300 300;" xml:space="preserve">
<style type="text/css">
	.st0{opacity:0.1;fill:#FB8201;enable-background:new    ;}
</style>
<g id="Calque_2_1_">
	<g id="Calque_2-2">
		<path class="st0" d="M150,0C67.2,0,0,67.2,0,150s67.2,150,150,150s150-67.2,150-150S232.8,0,150,0z M150,276.3
			c-69.8,0-126.3-56.6-126.3-126.3C23.7,80.2,80.2,23.7,150,23.7c69.8,0,126.3,56.6,126.3,126.3c0,0,0,0,0,0
			C276.3,219.8,219.8,276.3,150,276.3z"/>
		<path class="st0" d="M150,7C71,7,7,71,7,150s64,143,143,143s143-64,143-143S229,7,150,7z M150,270.4
			c-66.5,0-120.4-53.9-120.4-120.4S83.5,29.6,150,29.6S270.4,83.5,270.4,150S216.5,270.4,150,270.4L150,270.4z"/>
		<path class="st0" d="M150,14C74.9,14,14,74.9,14,150s60.9,136,136,136s136-60.9,136-136S225.1,14,150,14z M150,264.5
			c-63.3,0-114.5-51.3-114.5-114.5S86.7,35.5,150,35.5S264.5,86.7,264.5,150c0,0,0,0,0,0C264.5,213.3,213.3,264.5,150,264.5
			L150,264.5L150,264.5z"/>
		<path class="st0" d="M150,22C79.3,22,22,79.3,22,150s57.3,128,128,128s128-57.3,128-128S220.7,22,150,22z M150,268.4
			c-65.4,0-118.4-53-118.4-118.4S84.6,31.6,150,31.6s118.4,53,118.4,118.4S215.4,268.4,150,268.4C150,268.4,150,268.4,150,268.4z"/>
		<path class="st0" d="M150,3.3C69,3.3,3.3,69,3.3,150S69,296.7,150,296.7S296.7,231,296.7,150S231,3.3,150,3.3
			C150,3.3,150,3.3,150,3.3z M150,285.6c-74.9,0-135.6-60.7-135.6-135.6S75.1,14.4,150,14.4S285.6,75.1,285.6,150
			S224.9,285.6,150,285.6C150,285.6,150,285.6,150,285.6L150,285.6z"/>
		<path class="st0" d="M150,16.7C76.4,16.7,16.7,76.4,16.7,150S76.4,283.3,150,283.3S283.3,223.6,283.3,150l0,0
			C283.3,76.4,223.6,16.7,150,16.7z M150,273.3c-68.1,0-123.3-55.2-123.3-123.3S81.9,26.7,150,26.7S273.3,81.9,273.3,150
			C273.3,218.1,218.1,273.3,150,273.3L150,273.3L150,273.3z"/>
	</g>
</g>
</svg>
