<svg id="Calque_1" data-name="Calque 1" xmlns="http://www.w3.org/2000/svg" viewBox="0 0 128 128"><defs><style>.cls-1{fill:#fff;}</style></defs><title>cluster</title><path class="cls-1" d="M64,16.39a47.88,47.88,0,0,1,9.49.95l5.22-9A57.63,57.63,0,0,0,6.4,64a58.67,58.67,0,0,0,.86,9.89H17.43A47.6,47.6,0,0,1,64,16.39Z"/><path class="cls-1" d="M110.63,54.36a47.61,47.61,0,0,1-56,56.32l-5.23,9a57.57,57.57,0,0,0,71.37-65.37Z"/><path class="cls-1" d="M64,0a64,64,0,1,0,64,64A64,64,0,0,0,64,0Zm0,124a60,60,0,1,1,60-60A60,60,0,0,1,64,124Z"/><path class="cls-1" d="M44.06,118.05l2.64-4.56A52.54,52.54,0,0,1,13.8,79.15H8.43A57.72,57.72,0,0,0,44.06,118.05Z"/><path class="cls-1" d="M114.44,49.72h5.37A57.67,57.67,0,0,0,82.9,9.59l-2.63,4.57A52.51,52.51,0,0,1,114.44,49.72Z"/></svg>