<svg xmlns="http://www.w3.org/2000/svg" viewBox="0 0 300 300"><defs><style>.cls-1{fill:#fff;opacity:0.1;}</style></defs><title>default-mobile</title><g id="Calque_2" data-name="Calque 2"><g id="Calque_2-2" data-name="Calque 2"><path class="cls-1" d="M150,0A150,150,0,1,0,300,150,150,150,0,0,0,150,0Zm0,276.33A126.33,126.33,0,1,1,276.33,150,126.33,126.33,0,0,1,150,276.33Z"/><path class="cls-1" d="M150,7A143,143,0,1,0,293,150,143,143,0,0,0,150,7Zm0,263.44A120.44,120.44,0,1,1,270.44,150,120.44,120.44,0,0,1,150,270.44Z"/><path class="cls-1" d="M150,14A136,136,0,1,0,286,150,136,136,0,0,0,150,14Zm0,250.54A114.54,114.54,0,1,1,264.54,150,114.54,114.54,0,0,1,150,264.54Z"/><path class="cls-1" d="M150,22A128,128,0,1,0,278,150,128,128,0,0,0,150,22Zm0,246.38A118.38,118.38,0,1,1,268.38,150,118.38,118.38,0,0,1,150,268.38Z"/><path class="cls-1" d="M150,3.33A146.67,146.67,0,1,0,296.67,150,146.67,146.67,0,0,0,150,3.33Zm0,282.31A135.64,135.64,0,1,1,285.64,150,135.64,135.64,0,0,1,150,285.64Z"/><path class="cls-1" d="M150,16.67A133.33,133.33,0,1,0,283.33,150,133.33,133.33,0,0,0,150,16.67Zm0,256.64A123.31,123.31,0,1,1,273.31,150,123.31,123.31,0,0,1,150,273.31Z"/></g></g></svg>