<?xml version="1.0" encoding="utf-8"?>
<!-- Generator: Adobe Illustrator 22.1.0, SVG Export Plug-In . SVG Version: 6.00 Build 0)  -->
<svg version="1.1" baseProfile="tiny" id="Calque_1"
	 xmlns="http://www.w3.org/2000/svg" xmlns:xlink="http://www.w3.org/1999/xlink" x="0px" y="0px" viewBox="0 0 1000 1000"
	 xml:space="preserve">
<g>
	<g transform="translate(0.000000,511.000000) scale(0.100000,-0.100000)">
		<path fill="#FFFFFF" d="M8587.1,4984.5c-512.1-73.1-1306.3-436.3-2103.1-961.4l-310.9-203.8l-240.4,60.1
			c-935.3,237.7-1988.1,94-2824.1-381.4c-1086.8-619.2-1800-1669.4-1959.4-2889.4c-65.3-501.6-41.8-964,78.4-1436.9l62.7-243
			l-138.5-203.8c-381.4-553.9-747.2-1254-903.9-1724.3C18-3689.1,54.6-4159.3,368.1-4493.7c533-569.5,1630.2-324,3195.1,710.6
			l269.1,180.2l256-65.3c867.4-219.4,1781.7-122.8,2599.5,271.7c1656.4,799.4,2531.6,2651.7,2087.4,4415.2l-65.3,253.4l180.3,271.7
			C9755,2850.1,10071,3845.5,9812.4,4448.9c-62.7,148.9-235.1,339.6-384,425.8c-122.8,70.5-412.8,141.1-572.2,138.5
			C8798.7,5010.6,8678.6,4997.6,8587.1,4984.5z M9062.6,4122.4c172.4-243-253.4-1256.6-951-2267.7
			c-1319.3-1907.2-3122-3694.1-5003-4956c-739.3-496.4-1614.5-896.1-1959.4-896.1c-57.5,0-133.2,18.3-167.2,41.8
			c-57.5,41.8-60.1,57.5-49.6,256c15.7,243,94,501.6,271.7,877.8c133.2,282.1,459.8,862.1,485.9,862.1c7.8,0,81-91.4,159.4-201.2
			c78.4-112.3,201.2-266.5,269.1-342.2l128-141.1l209,135.8c115,75.8,324,219.4,462.4,321.3l256,182.9l-190.7,198.5
			c-339.6,355.3-564.3,757.6-692.3,1227.9c-60.1,222.1-67.9,300.4-67.9,681.9c0,384.1,7.8,459.8,70.5,692.3
			C2560,1786.8,3317.7,2547,4310.4,2813.5c232.5,62.7,308.3,70.5,692.3,70.5c381.4,0,459.8-7.8,681.9-67.9
			c467.7-125.4,872.6-355.3,1227.9-692.3l198.6-190.7l182.9,256c101.9,138.5,245.6,347.5,321.3,462.4l135.9,209l-141.1,128
			c-75.8,67.9-229.9,190.7-339.6,269.1c-112.3,78.4-203.8,151.5-203.8,159.4c0,20.9,530.3,326.6,778.5,446.7
			c402.3,201.2,760.3,313.5,1003.2,313.5C8999.9,4179.9,9028.6,4172,9062.6,4122.4z M7774.6-214.4
			c-41.8-308.3-99.3-525.1-211.6-783.8C7160.7-1936.1,6256.8-2584,5224.8-2678l-182.9-15.7l94,86.2c49.6,47,243,222.1,431.1,386.7
			C6228-1633,7045.8-799.6,7617.9-133.4c91.4,104.5,169.8,177.7,175,162C7798.2,12.9,7790.3-96.9,7774.6-214.4z"/>
	</g>
</g>
</svg>
