<?xml version="1.0" encoding="utf-8"?>
<!-- Generator: Adobe Illustrator 22.1.0, SVG Export Plug-In . SVG Version: 6.00 Build 0)  -->
<svg version="1.1" id="Calque_3" xmlns="http://www.w3.org/2000/svg" xmlns:xlink="http://www.w3.org/1999/xlink" x="0px" y="0px"
	 viewBox="0 0 207.3 519" style="enable-background:new 0 0 207.3 519;" xml:space="preserve">
<style type="text/css">
	.st0{fill:#9B9B9B;}
	.st1{fill:#111111;}
	.st2{fill:#DC181C;}
	.st3{fill:#999999;}
	.st4{fill:#A9A9A9;}
</style>
<polygon class="st0" points="98.9,0 98.9,30.8 92.9,30.8 95.9,0 "/>
<polygon class="st0" points="108.3,0 108.3,30.7 114.3,30.7 111.3,0 "/>
<path class="st1" d="M50.3,356.3c-12,0-11,8.3-11,8.3v11.7l-3.7,1.7v98.3V519H48v-3h17.3v3h10.3V379.7
	C75.7,379.7,62.3,356.3,50.3,356.3z M66,485.3H46.7V433H66V485.3z"/>
<path class="st1" d="M131.7,379.7V519H142v-3h17.3v3h12.3v-42.7V378l-3.7-1.7v-11.7c0,0,1-8.3-11-8.3S131.7,379.7,131.7,379.7z
	 M141.3,433h19.3v52.3h-19.3V433z"/>
<path class="st1" d="M28.7,339c0,0,3.3,0.7,3.3-9s-11-15.5-15.5-15.5c-2.5,0-10.5,9.8-10.5,9.8c0,5.3,0,16,0,16l3,1L9.3,364L0,378
	v97.3h4.7v-4h21v4H32V371l-3.3-7V339z M24.7,450.3H6V416h18.7V450.3z"/>
<rect x="15.3" y="343.3" class="st2" width="8" height="10.7"/>
<path class="st1" d="M196.6,319.3L162.4,259v-39.3L138,128.3L132.7,63h-12.3l4.3,65.7v32l2.2,48.1l-5.9-21.5
	c0-60-5.3-147.7-5.3-147.7l-4-22.3h-8h-0.3h-8l-4,22.3c0,0-5.3,87.7-5.3,147.7l-5.9,21.5l2.2-48.1v-32L86.7,63H74.3L69,128.3
	l-24.3,91.3V259l-34.3,60.4l21.5,13l9.2-10.6l-5.4,22.5v20H80c0-25.3-4.3-54.3-4.3-54.3v-30H80v7.3h5.7c0,0,0.3,55.7,3.7,75h14h0.3
	h14c3.3-19.3,3.7-75,3.7-75h5.7V280h4.3v30c0,0-4.3,29-4.3,54.3h44.3v-20l-5.4-22.5l9.2,10.6L196.6,319.3z M76.3,88.6l1.5-19h4.4
	l-0.9,19H76.3z M125.7,88.6l-0.9-19h4.4l1.5,19H125.7z"/>
<path class="st1" d="M178.7,364l-3.3,7v104.3h6.3v-4h21v4h4.7V378l-9.3-14l0.3-22.7l3-1c0,0,0-10.7,0-16c0,0-8-9.8-10.5-9.8
	c-4.5,0-15.5,5.8-15.5,15.5s3.3,9,3.3,9V364z M182.7,416h18.7v34.3h-18.7V416z"/>
<rect x="184" y="343.3" class="st2" width="8" height="10.7"/>
<path class="st3" d="M89,251.1c0,0,0.1,0.2,0.2,0.6c0.8,2.1,5.3,9.4,14.3,9.4c10.5,0,14.8-10,14.8-10s0.7,57-3.4,111.2H92.4
	C92.4,362.3,89,314.5,89,251.1z"/>
<g>
	<path class="st3" d="M38.7,343.3v16.5h38.5c-1.7-30.7-5.3-49.5-5.3-49.5l0.2-23.5H55.7L46.1,307l-1.8-4l1.5-38.8l-26.5,44.7
		l14.8,14.5l11.2-10.9l-1,7.5L38.7,343.3z"/>
	<polygon class="st3" points="72.3,282.5 55.7,282.5 56.9,243.9 60.7,219.5 76.5,219.5 76.5,239.8 	"/>
</g>
<g>
	<path class="st3" d="M117.2,168.8c-2.7-80.1-9.1-151.5-9.1-151.5h-4.4h-4.4c0,0-6.5,71.4-9.1,151.5H117.2z"/>
	<path class="st3" d="M90,171.5c-0.6,19.8-1,40-1,59.8V244c0,0,4.7,11.7,14.7,11.7s14.7-11.7,14.7-11.7v-12.7
		c0-19.8-0.4-40.1-1-59.8H90z"/>
</g>
<path class="st4" d="M103.7,333.7L78,396.3c0,0,21.8,16.3,51.5,0L103.7,333.7z"/>
<g>
	<path class="st3" d="M168.7,343.3v16.5h-38.5c1.7-30.7,5.3-49.5,5.3-49.5l-0.2-23.5h16.3l9.5,20.2l1.8-4l-1.5-38.8l26.5,44.7
		l-14.8,14.5L162,312.5l1,7.5L168.7,343.3z"/>
	<polygon class="st3" points="135,282.5 151.7,282.5 150.4,243.9 146.7,219.5 130.8,219.5 130.8,239.8 	"/>
</g>
</svg>
