<svg id="Calque_1" data-name="Calque 1" xmlns="http://www.w3.org/2000/svg" viewBox="0 0 296 519"><defs><style>.cls-1{fill:#dbdbdb;}.cls-2{fill:#b5b5b5;}.cls-3{fill:#2c71b9;}</style></defs><title>tempest</title><path class="cls-1" d="M0,459c12.59-19.71,25.38-39.29,37.56-59.24,2.15-3.52,2.27-8.61,2.28-13,0-4.8,1.13-8.92,4.32-12.33Q66.95,350,89.88,325.75c8.81-9.29,17.76-18.47,21.82-31a43.57,43.57,0,0,0,2.21-11.16c1.18-24.74,2.08-49.5,3.18-74.25q1.93-43.86,4.07-87.7c.23-4.91.71-9.81,1.13-15.34H87.36V75.68c3-1.36,4.77-1,4.67,3.09-.12,4.79,0,9.58,0,15.09,11.82-6.32,23.15-12.16,32.42-21.1,1.64-1.58,2.33-4.67,2.53-7.14,1.43-17.34,2.36-34.72,8-51.39,2-5.76,4.7-10.87,10-14.23h5c8.83,4.85,11.18,13.83,12.7,22.43,2.5,14.14,3.46,28.56,5.42,42.81.4,2.92,1.55,6.69,3.68,8.26,9.66,7.13,19.81,13.62,29.77,20.34l1.55-1.06c0-4.53,0-9.07,0-13.61,0-3.09.87-4.89,5-3.64v30.81h-34c0,8.41-.23,16,.06,23.56.34,9.12,1.28,18.21,1.69,27.33.82,18.43,1.32,36.87,2.2,55.3,1.2,25.06,2.31,50.13,4.09,75.15.75,10.59,6.43,19.57,13.49,27.2,11.81,12.79,24.22,25,36.24,37.62,5.85,6.13,11.25,12.68,17.08,18.82,5.55,5.86,6.82,12.9,7.13,20.59a21.67,21.67,0,0,0,3.1,10.08c11.26,18.19,22.85,36.19,34.29,54.27a35.38,35.38,0,0,1,1.74,3.55c-.07,5.73-.27,11.46-.16,17.19.07,3.34.63,6.67,1,10v5c-2.54-1.64-5.4-2.93-7.58-5-9-8.45-17.86-17.12-27-25.93-.44,3.11.15,6.82-1.31,8-6.73,5.45-14,10.19-22.13,15.88v-7.65c0-14.31-.09-28.62.09-42.93.05-3.64-1.32-4.74-4.68-4.43-2.06.18-4.14,0-6.41,0,0,20.29.11,39.75-.14,59.21a11.45,11.45,0,0,1-3.12,7.19C216,504.13,207.94,511.5,200,519h-2V429.64c-22.34,5.13-31.87,19.91-34.27,40H131.28c-1.8-20.05-12.61-34.16-29.23-39-4-1.15-5,0-5,3.84q.09,42.22,0,84.46H96c-7.9-7.32-16-14.47-23.59-22.08a13.78,13.78,0,0,1-3.91-8.44c-.41-17-.29-33.92-.34-50.89,0-2.43,0-4.85,0-7.31H57.48v54.6c-5.41-3.71-9.67-6.53-13.83-9.49-4.78-3.4-11.14-5.79-8.87-14.26a22.67,22.67,0,0,0-4.45,3.31c-7,6.83-13.93,13.8-21.08,20.5C6.44,487.58,3.1,489.66,0,492Zm139.33,2c4.06,0,7.57-.31,11,.08,4.46.5,5.76-1.37,6.8-5.56,3.06-12.3,7.89-23.67,20.43-29.62a4.21,4.21,0,0,0,1.66-3.22c.12-4.77-.09-9.56-.11-14.34-.07-18.83,0-37.66-.24-56.49-.09-6.62.19-13.56-1.66-19.77-2.28-7.7-6.25-15-10.1-22.12-5.36-9.92-9.45-19.91-9.23-31.59.28-14.63-.58-29.27-.74-43.91-.17-16.49-.15-33-.07-49.49a8.94,8.94,0,0,1,1.53-5c4.4-5.92,4.72-17,.82-23.27-1.87-3-4.1-6.48-4.23-9.82-1-24.93-1.5-49.88-2.09-74.82-.42-17.47-.85-34.94-1-52.41,0-3.9-1.41-4.86-5-4.62-3.89.25-4,2.81-4,5.57-.67,26.77-1.4,53.55-1.95,80.32-.25,11.66-.05,23.33-.22,35-.11,7.78-.37,15.38-5.63,22.12-3.59,4.58-2.79,16-.46,19.49,1.63,2.41,3.16,5.53,3.15,8.32q-.19,50.2-1,100.39a29.29,29.29,0,0,1-2.64,11c-2.81,6.36-6.6,12.28-9.39,18.65-3,6.78-7.2,13.77-7.5,20.81-1.19,28.1-1,56.26-1.46,84.4,0,2.87,1.21,4.27,3.62,5.79a38.4,38.4,0,0,1,9.32,8A47.34,47.34,0,0,1,139.33,461Z"/><path class="cls-2" d="M296,487c-.33-3.33-.89-6.66-1-10-.11-5.73.09-11.46.16-17.19a.77.77,0,0,1,.8.19Z"/><path class="cls-3" d="M139.33,461a47.34,47.34,0,0,0-10.46-26.06,38.4,38.4,0,0,0-9.32-8c-2.41-1.52-3.66-2.92-3.62-5.79.42-28.14.27-56.3,1.46-84.4.3-7,4.53-14,7.5-20.81,2.79-6.37,6.58-12.29,9.39-18.65a29.29,29.29,0,0,0,2.64-11q.81-50.19,1-100.39c0-2.79-1.52-5.91-3.15-8.32-2.33-3.45-3.13-14.91.46-19.49,5.26-6.74,5.52-14.34,5.63-22.12.17-11.66,0-23.33.22-35,.55-26.77,1.28-53.55,1.95-80.32.06-2.76.15-5.32,4-5.57,3.59-.24,5,.72,5,4.62.15,17.47.58,34.94,1,52.41.59,24.94,1.11,49.89,2.09,74.82.13,3.34,2.36,6.8,4.23,9.82,3.9,6.31,3.58,17.35-.82,23.27a8.94,8.94,0,0,0-1.53,5c-.08,16.5-.1,33,.07,49.49.16,14.64,1,29.28.74,43.91-.22,11.68,3.87,21.67,9.23,31.59,3.85,7.14,7.82,14.42,10.1,22.12,1.85,6.21,1.57,13.15,1.66,19.77.24,18.83.17,37.66.24,56.49,0,4.78.23,9.57.11,14.34a4.21,4.21,0,0,1-1.66,3.22c-12.54,5.95-17.37,17.32-20.43,29.62-1,4.19-2.34,6.06-6.8,5.56C146.9,460.65,143.39,461,139.33,461Z"/></svg>