<?xml version="1.0" encoding="utf-8"?>
<!-- Generator: Adobe Illustrator 22.1.0, SVG Export Plug-In . SVG Version: 6.00 Build 0)  -->
<svg version="1.1" xmlns="http://www.w3.org/2000/svg" xmlns:xlink="http://www.w3.org/1999/xlink" x="0px" y="0px"
	 viewBox="0 0 300 300" enable-background="new 0 0 300 300" xml:space="preserve">
<g id="Calque_3" display="none">
	
		<line display="inline" fill="none" stroke="#173EFF" stroke-width="0.25" stroke-miterlimit="10" x1="0" y1="0" x2="300" y2="300"/>
	
		<line display="inline" fill="none" stroke="#173EFF" stroke-width="0.25" stroke-miterlimit="10" x1="-54.9" y1="95.1" x2="354.9" y2="204.9"/>
	
		<line display="inline" fill="none" stroke="#173EFF" stroke-width="0.25" stroke-miterlimit="10" x1="-54.9" y1="204.9" x2="354.9" y2="95.1"/>
	
		<line display="inline" fill="none" stroke="#173EFF" stroke-width="0.25" stroke-miterlimit="10" x1="0" y1="300" x2="300" y2="0"/>
	
		<line display="inline" fill="none" stroke="#173EFF" stroke-width="0.25" stroke-miterlimit="10" x1="95.1" y1="354.9" x2="204.9" y2="-54.9"/>
	
		<line display="inline" fill="none" stroke="#173EFF" stroke-width="0.25" stroke-miterlimit="10" x1="204.9" y1="354.9" x2="95.1" y2="-54.9"/>
	
		<line display="inline" fill="none" stroke="#173EFF" stroke-width="0.25" stroke-miterlimit="10" x1="-33.7" y1="43.9" x2="333.7" y2="256.1"/>
	
		<line display="inline" fill="none" stroke="#173EFF" stroke-width="0.25" stroke-miterlimit="10" x1="-62.1" y1="150" x2="362.1" y2="150"/>
	
		<line display="inline" fill="none" stroke="#173EFF" stroke-width="0.25" stroke-miterlimit="10" x1="-33.7" y1="256.1" x2="333.7" y2="43.9"/>
	
		<line display="inline" fill="none" stroke="#173EFF" stroke-width="0.25" stroke-miterlimit="10" x1="43.9" y1="333.7" x2="256.1" y2="-33.7"/>
	
		<line display="inline" fill="none" stroke="#173EFF" stroke-width="0.25" stroke-miterlimit="10" x1="150" y1="362.1" x2="150" y2="-62.1"/>
	
		<line display="inline" fill="none" stroke="#173EFF" stroke-width="0.25" stroke-miterlimit="10" x1="256.1" y1="333.7" x2="43.9" y2="-33.7"/>
	
		<line display="inline" fill="none" stroke="#173EFF" stroke-width="0.25" stroke-miterlimit="10" x1="-18.3" y1="20.9" x2="318.3" y2="279.1"/>
	
		<line display="inline" fill="none" stroke="#173EFF" stroke-width="0.25" stroke-miterlimit="10" x1="-60.3" y1="122.3" x2="360.3" y2="177.7"/>
	
		<line display="inline" fill="none" stroke="#173EFF" stroke-width="0.25" stroke-miterlimit="10" x1="-46" y1="231.2" x2="346" y2="68.8"/>
	
		<line display="inline" fill="none" stroke="#173EFF" stroke-width="0.25" stroke-miterlimit="10" x1="20.9" y1="318.3" x2="279.1" y2="-18.3"/>
	
		<line display="inline" fill="none" stroke="#173EFF" stroke-width="0.25" stroke-miterlimit="10" x1="122.3" y1="360.3" x2="177.7" y2="-60.3"/>
	
		<line display="inline" fill="none" stroke="#173EFF" stroke-width="0.25" stroke-miterlimit="10" x1="231.2" y1="346" x2="68.8" y2="-46"/>
	
		<line display="inline" fill="none" stroke="#173EFF" stroke-width="0.25" stroke-miterlimit="10" x1="-46" y1="68.8" x2="346" y2="231.2"/>
	
		<line display="inline" fill="none" stroke="#173EFF" stroke-width="0.25" stroke-miterlimit="10" x1="-60.3" y1="177.7" x2="360.3" y2="122.3"/>
	
		<line display="inline" fill="none" stroke="#173EFF" stroke-width="0.25" stroke-miterlimit="10" x1="-18.3" y1="279.1" x2="318.3" y2="20.9"/>
	
		<line display="inline" fill="none" stroke="#173EFF" stroke-width="0.25" stroke-miterlimit="10" x1="68.8" y1="346" x2="231.2" y2="-46"/>
	
		<line display="inline" fill="none" stroke="#173EFF" stroke-width="0.25" stroke-miterlimit="10" x1="177.7" y1="360.3" x2="122.3" y2="-60.3"/>
	
		<line display="inline" fill="none" stroke="#173EFF" stroke-width="0.25" stroke-miterlimit="10" x1="279.1" y1="318.3" x2="20.9" y2="-18.3"/>
	
		<line display="inline" fill="none" stroke="#173EFF" stroke-width="0.25" stroke-miterlimit="10" x1="-9.5" y1="10.1" x2="309.5" y2="289.9"/>
	
		<line display="inline" fill="none" stroke="#173EFF" stroke-width="0.25" stroke-miterlimit="10" x1="-58.1" y1="108.6" x2="358.1" y2="191.4"/>
	
		<line display="inline" fill="none" stroke="#173EFF" stroke-width="0.25" stroke-miterlimit="10" x1="-50.9" y1="218.2" x2="350.9" y2="81.8"/>
	
		<line display="inline" fill="none" stroke="#173EFF" stroke-width="0.25" stroke-miterlimit="10" x1="10.1" y1="309.5" x2="289.9" y2="-9.5"/>
	
		<line display="inline" fill="none" stroke="#173EFF" stroke-width="0.25" stroke-miterlimit="10" x1="108.6" y1="358.1" x2="191.4" y2="-58.1"/>
	
		<line display="inline" fill="none" stroke="#173EFF" stroke-width="0.25" stroke-miterlimit="10" x1="218.2" y1="350.9" x2="81.8" y2="-50.9"/>
	
		<line display="inline" fill="none" stroke="#173EFF" stroke-width="0.25" stroke-miterlimit="10" x1="-40.3" y1="56.2" x2="340.3" y2="243.8"/>
	
		<line display="inline" fill="none" stroke="#173EFF" stroke-width="0.25" stroke-miterlimit="10" x1="-61.7" y1="163.9" x2="361.7" y2="136.1"/>
	
		<line display="inline" fill="none" stroke="#173EFF" stroke-width="0.25" stroke-miterlimit="10" x1="-26.4" y1="267.9" x2="326.4" y2="32.1"/>
	
		<line display="inline" fill="none" stroke="#173EFF" stroke-width="0.25" stroke-miterlimit="10" x1="56.2" y1="340.3" x2="243.8" y2="-40.3"/>
	
		<line display="inline" fill="none" stroke="#173EFF" stroke-width="0.25" stroke-miterlimit="10" x1="163.9" y1="361.7" x2="136.1" y2="-61.7"/>
	
		<line display="inline" fill="none" stroke="#173EFF" stroke-width="0.25" stroke-miterlimit="10" x1="267.9" y1="326.4" x2="32.1" y2="-26.4"/>
	
		<line display="inline" fill="none" stroke="#173EFF" stroke-width="0.25" stroke-miterlimit="10" x1="-26.4" y1="32.1" x2="326.4" y2="267.9"/>
	
		<line display="inline" fill="none" stroke="#173EFF" stroke-width="0.25" stroke-miterlimit="10" x1="-61.7" y1="136.1" x2="361.7" y2="163.9"/>
	
		<line display="inline" fill="none" stroke="#173EFF" stroke-width="0.25" stroke-miterlimit="10" x1="-40.3" y1="243.8" x2="340.3" y2="56.2"/>
	
		<line display="inline" fill="none" stroke="#173EFF" stroke-width="0.25" stroke-miterlimit="10" x1="32.1" y1="326.4" x2="267.9" y2="-26.4"/>
	
		<line display="inline" fill="none" stroke="#173EFF" stroke-width="0.25" stroke-miterlimit="10" x1="136.1" y1="361.7" x2="163.9" y2="-61.7"/>
	
		<line display="inline" fill="none" stroke="#173EFF" stroke-width="0.25" stroke-miterlimit="10" x1="243.8" y1="340.3" x2="56.2" y2="-40.3"/>
	
		<line display="inline" fill="none" stroke="#173EFF" stroke-width="0.25" stroke-miterlimit="10" x1="-50.9" y1="81.8" x2="350.9" y2="218.2"/>
	
		<line display="inline" fill="none" stroke="#173EFF" stroke-width="0.25" stroke-miterlimit="10" x1="-58.1" y1="191.4" x2="358.1" y2="108.6"/>
	
		<line display="inline" fill="none" stroke="#173EFF" stroke-width="0.25" stroke-miterlimit="10" x1="-9.5" y1="289.9" x2="309.5" y2="10.1"/>
	
		<line display="inline" fill="none" stroke="#173EFF" stroke-width="0.25" stroke-miterlimit="10" x1="81.8" y1="350.9" x2="218.2" y2="-50.9"/>
	
		<line display="inline" fill="none" stroke="#173EFF" stroke-width="0.25" stroke-miterlimit="10" x1="191.4" y1="358.1" x2="108.6" y2="-58.1"/>
	
		<line display="inline" fill="none" stroke="#173EFF" stroke-width="0.25" stroke-miterlimit="10" x1="289.9" y1="309.5" x2="10.1" y2="-9.5"/>
</g>
<g id="Calque_1" display="none">
	<rect y="150" display="inline" width="300" height="150"/>
</g>
<g id="Calque_2" display="none">
	<path display="inline" fill="#FF0000" d="M150,20.5c-71.5,0-129.5,58-129.5,129.5s58,129.5,129.5,129.5s129.5-58,129.5-129.5
		S221.5,20.5,150,20.5z M150,264.8c-63.4,0-114.8-51.4-114.8-114.8S86.6,35.2,150,35.2S264.8,86.6,264.8,150S213.4,264.8,150,264.8z
		"/>
	<g id="Calque_2_1_" display="inline">
		<g id="thinner">
			<path fill="#FF0000" d="M461.5,0c-82.8,0-150,67.2-150,150s67.2,150,150,150s150-67.2,150-150S544.3,0,461.5,0z M461.5,295.7
				c-80.5,0-145.7-65.2-145.7-145.7S381,4.3,461.5,4.3S607.2,69.5,607.2,150S542,295.7,461.5,295.7
				C461.5,295.7,461.5,295.7,461.5,295.7z"/>
		</g>
	</g>
	<g id="Calque_2_2_" display="inline">
		<g id="thinner_1_">
			<path fill="#FF0000" d="M461.5,4.3C381,4.3,315.8,69.5,315.8,150S381,295.7,461.5,295.7S607.2,230.5,607.2,150S542,4.3,461.5,4.3
				z M461.5,291.5C383.4,291.5,320,228.1,320,150C320,71.9,383.4,8.5,461.5,8.5C539.6,8.5,603,71.9,603,150S539.6,291.5,461.5,291.5
				C461.5,291.5,461.5,291.5,461.5,291.5z"/>
		</g>
	</g>
	<g id="Calque_2_4_" display="inline">
		<g id="thinner_3_">
			<path fill="#FF0000" d="M461.5,8.5C383.4,8.5,320,71.9,320,150s63.3,141.5,141.5,141.5S603,228.1,603,150S539.6,8.5,461.5,8.5z
				 M461.5,287.4c-75.9,0-137.4-61.5-137.4-137.4S385.6,12.6,461.5,12.6S598.9,74.1,598.9,150S537.4,287.4,461.5,287.4
				C461.5,287.4,461.5,287.4,461.5,287.4z"/>
		</g>
	</g>
	<g id="Calque_2_3_" display="inline">
		<g id="thinner_2_">
			<path fill="#FF0000" d="M461.5,12.6c-75.9,0-137.4,61.5-137.4,137.4s61.5,137.4,137.4,137.4S598.9,225.9,598.9,150
				S537.4,12.6,461.5,12.6z M461.5,283.4c-73.7,0-133.4-59.7-133.4-133.4S387.8,16.6,461.5,16.6S594.9,76.3,594.9,150
				S535.2,283.4,461.5,283.4C461.5,283.4,461.5,283.4,461.5,283.4z"/>
		</g>
	</g>
	<g id="Calque_2_6_" display="inline">
		<g id="thinner_5_">
			<path fill="#FF0000" d="M461.5,16.6c-73.7,0-133.4,59.7-133.4,133.4s59.7,133.4,133.4,133.4S594.9,223.7,594.9,150
				S535.2,16.6,461.5,16.6z M461.5,279.6c-71.6,0-129.6-58-129.6-129.6c0-71.6,58-129.6,129.6-129.6s129.6,58,129.6,129.6
				S533.1,279.6,461.5,279.6C461.5,279.6,461.5,279.6,461.5,279.6z"/>
		</g>
	</g>
	<g id="Calque_2_5_" display="inline">
		<g id="thinner_4_">
			<path fill="#FF0000" d="M461.5,20.4c-71.6,0-129.6,58-129.6,129.6s58,129.6,129.6,129.6s129.6-58,129.6-129.6
				S533.1,20.4,461.5,20.4z M461.5,275.8c-69.5,0-125.8-56.3-125.8-125.8c0-69.5,56.3-125.8,125.8-125.8S587.3,80.5,587.3,150
				S531,275.8,461.5,275.8C461.5,275.8,461.5,275.8,461.5,275.8z"/>
		</g>
	</g>
	<g id="Calque_2_9_" display="inline">
		<g id="thinner_8_">
			<path fill="#FF0000" d="M461.5,24.2C392,24.2,335.7,80.5,335.7,150S392,275.8,461.5,275.8S587.3,219.5,587.3,150
				S531,24.2,461.5,24.2z M461.5,272.2c-67.5,0-122.2-54.7-122.2-122.2c0-67.5,54.7-122.2,122.2-122.2S583.7,82.5,583.7,150
				S529,272.2,461.5,272.2C461.5,272.2,461.5,272.2,461.5,272.2z"/>
		</g>
	</g>
	<g id="Calque_2_8_" display="inline">
		<g id="thinner_7_">
			<path fill="#FF0000" d="M461.5,27.8C394,27.8,339.3,82.5,339.3,150S394,272.2,461.5,272.2S583.7,217.5,583.7,150
				S529,27.8,461.5,27.8z M461.5,268.7c-65.5,0-118.7-53.1-118.7-118.7c0-65.5,53.1-118.7,118.7-118.7S580.2,84.5,580.2,150
				S527,268.7,461.5,268.7C461.5,268.7,461.5,268.7,461.5,268.7z"/>
		</g>
	</g>
	<g id="Calque_2_7_" display="inline">
		<g id="thinner_6_">
			<path fill="#FF0000" d="M461.5,31.3C396,31.3,342.8,84.5,342.8,150S396,268.7,461.5,268.7S580.2,215.5,580.2,150
				S527,31.3,461.5,31.3z M461.5,265.2c-63.6,0-115.2-51.6-115.2-115.2c0-63.6,51.6-115.2,115.2-115.2S576.7,86.4,576.7,150
				S525.1,265.2,461.5,265.2C461.5,265.2,461.5,265.2,461.5,265.2z"/>
		</g>
	</g>
</g>
<g id="Calque_4">
	<path fill="#FF0000" d="M28.4,158"/>
	<path fill="#FF0000" d="M28.4,158"/>
	<path fill="#FF0000" d="M279.1,149.5c0-0.2,0.1-0.3,0.1-0.5H279c-2.4-4.8-21.9-3.4-22.5-13c-0.3-4.8-0.7-9.6-1.9-14.1
		c-2.4-9.1-7.7-17.2-12.3-25.1c-4.7-8.1-10.4-15.5-16.9-22.1c-6.6-6.6-14-12.3-22.1-16.9c-8-4.6-16.6-8.2-25.7-10.7
		c-8.8-2.4-18-3.6-27.6-3.6s-18.8,1.3-27.6,3.6c-9.1,2.4-17.7,6-25.7,10.7c-8.1,4.7-15.5,10.4-22.1,16.9c-6.6,6.6-12.3,14-16.9,22.1
		c-4.6,8-9.9,16-12.3,25.1c-1.2,4.5-1.6,9.3-1.9,14.1c-0.6,9.6-20.1,8.2-22.5,13h-0.2c0,0.2,0,0.3,0.1,0.5c0,0.2-0.1,0.3-0.1,0.5H21
		c2.4,4.8,21.9,3.4,22.5,13c0.3,4.8,0.7,9.6,1.9,14.1c2.4,9.1,7.7,17.2,12.3,25.1c4.7,8.1,10.4,15.5,16.9,22.1
		c6.6,6.6,14,12.3,22.1,16.9c8,4.6,16.6,8.2,25.7,10.7c8.8,2.4,18,3.6,27.6,3.6s18.8-1.3,27.6-3.6c9.1-2.4,17.7-6,25.7-10.7
		c8.1-4.7,15.5-10.4,22.1-16.9c6.6-6.6,12.3-14,16.9-22.1c4.6-8,9.9-16,12.3-25.1c1.2-4.5,1.6-9.3,1.9-14.1
		c0.6-9.6,20.1-8.2,22.5-13h0.2C279.2,149.8,279.2,149.7,279.1,149.5z M251.1,162.3c-0.9,4.7-3.4,9.1-4.6,13.5
		c-2.4,8.8-2.4,17.2-6.9,25c-4.5,7.8-10.1,15-16.5,21.4c-6.4,6.4-13.6,11.9-21.4,16.5c-7.7,4.5-16.1,8-25,10.3
		c-8.5,2.3-17.5,3.5-26.8,3.5s-18.2-1.2-26.8-3.5c-8.8-2.4-17.2-5.9-25-10.3c-7.8-4.5-15-10.1-21.4-16.5
		c-6.4-6.4-11.9-13.6-16.5-21.4c-4.5-7.7-4.5-16.1-6.9-25c-1.2-4.4-3.7-8.7-4.6-13.5c-1.8-9.9-17.1-9.6-18.6-12.8
		c1.4-3.3,16.7-2.9,18.6-12.8c0.9-4.7,3.4-9.1,4.6-13.5c2.4-8.8,2.4-17.2,6.9-25c4.5-7.8,10.1-15,16.5-21.4
		c6.4-6.4,13.6-11.9,21.4-16.5c7.7-4.5,16.1-8,25-10.3c8.5-2.3,17.5-3.5,26.8-3.5s18.2,1.2,26.8,3.5c8.8,2.4,17.2,5.9,25,10.3
		c7.8,4.5,15,10.1,21.4,16.5c6.4,6.4,11.9,13.6,16.5,21.4c4.5,7.7,4.5,16.1,6.9,25c1.2,4.4,3.7,8.7,4.6,13.5
		c1.8,9.9,17.1,9.6,18.6,12.8C268.2,152.8,252.9,152.4,251.1,162.3z"/>
	<path fill="#FF0000" d="M292.5,149.5c0-0.2,0-0.3,0-0.5h-0.1c-1.8-8.9-29.2,0.6-32.4-20.9c-0.4-2.5-1.1-4.9-1.8-7.3
		c-2.6-9.6-4.4-20.1-9.2-28.5c-4.9-8.5-12.3-15-19.3-22s-14.8-13-23.3-17.9c-8.4-4.9-17.5-8.7-27.2-11.3c-9.3-2.5-19.1-3.8-29.2-3.8
		s-19.9,1.3-29.2,3.8c-9.6,2.6-18.7,6.4-27.2,11.3c-8.5,4.9-16.4,11-23.3,17.9S56,83.7,51,92.3c-4.9,8.4-6.7,18.9-9.2,28.5
		c-0.6,2.4-1.4,4.8-1.8,7.3c-3.2,21.5-30.6,12-32.4,20.9H7.5c0,0.2,0,0.3,0,0.5c0,0.2,0,0.3,0,0.5h0.1c1.8,8.9,29.2-0.6,32.4,20.9
		c0.4,2.5,1.1,4.9,1.8,7.3c2.6,9.6,4.4,20.1,9.2,28.5c4.9,8.5,12.3,15,19.3,22s14.8,13,23.3,17.9c8.4,4.9,17.5,8.7,27.2,11.3
		c9.3,2.5,19.1,3.8,29.2,3.8s19.9-1.3,29.2-3.8c9.6-2.6,18.7-6.4,27.2-11.3c8.5-4.9,16.4-11,23.3-17.9s14.3-13.4,19.3-22
		c4.9-8.4,6.7-18.9,9.2-28.5c0.6-2.4,1.4-4.8,1.8-7.3c3.2-21.5,30.6-12,32.4-20.9h0.1C292.5,149.8,292.5,149.7,292.5,149.5z
		 M259,163.4c-0.3,2.4-0.5,4.8-0.9,7.1c-0.4,2.4-0.9,4.7-1.5,7c-2.5,9.3-8.5,17.4-13.2,25.6c-4.8,8.3-9.3,16.5-16,23.3
		S213,239,204.7,243.8c-8.2,4.7-17,8.4-26.4,10.9c-9,2.4-18.5,3.7-28.3,3.7s-19.3-1.3-28.3-3.7c-9.3-2.5-18.2-6.2-26.4-10.9
		c-8.3-4.8-15.9-10.7-22.7-17.4s-11.2-15-16-23.3c-4.7-8.2-10.7-16.2-13.2-25.6c-0.6-2.3-1.1-4.6-1.5-7c-0.4-2.4-0.6-4.7-0.9-7.1
		c-1.1-8.7-22.7-7.3-23.7-13.9c1-6.5,22.6-5.2,23.7-13.9c0.3-2.4,0.5-4.8,0.9-7.1c0.4-2.4,0.9-4.7,1.5-7c2.5-9.3,8.5-17.4,13.2-25.6
		c4.8-8.3,9.3-16.5,16-23.3S87,60,95.3,55.2c8.2-4.7,17-8.4,26.4-10.9c9-2.4,18.5-3.7,28.3-3.7s19.3,1.3,28.3,3.7
		c9.3,2.5,18.2,6.2,26.4,10.9c8.3,4.8,15.9,10.7,22.7,17.4s11.2,15,16,23.3c4.7,8.2,10.7,16.2,13.2,25.6c0.6,2.3,1.1,4.6,1.5,7
		c0.4,2.4,0.6,4.7,0.9,7.1c1.1,8.7,22.7,7.3,23.7,13.9C281.7,156,260.1,154.7,259,163.4z"/>
	<path fill="#FF0000" d="M256,149.5c0.2-0.2,0.3-0.3,0.3-0.5h-1.1c-3-1.3-11.1-2.2-11.1-5.2c0-6.4-0.2-12.8-1.7-18.7
		c-2.1-8-6.8-15.2-10.9-22.2c-4.1-7.1-9.2-13.7-15-19.5s-12.3-10.8-19.5-15c-7-4.1-14.6-7.3-22.7-9.4c-7.8-2.1-15.9-3.2-24.3-3.2
		s-16.6,1.1-24.3,3.2c-8,2.1-15.6,5.3-22.7,9.4c-7.1,4.1-13.7,9.2-19.5,15s-10.8,12.3-15,19.5c-4.1,7-8.7,14.2-10.9,22.2
		c-1.6,5.9-1.7,12.3-1.7,18.7c0,3-8.1,3.8-11.1,5.2h-1.1c0,0.2,0.1,0.3,0.3,0.5c-0.2,0.2-0.3,0.3-0.3,0.5h1.1
		c3,1.3,11.1,2.2,11.1,5.2c0,6.4,0.2,12.8,1.7,18.7c2.1,8,6.8,15.2,10.9,22.2c4.1,7.1,9.2,13.7,15,19.5s12.3,10.8,19.5,15
		c7,4.1,14.6,7.3,22.7,9.4c7.8,2.1,15.9,3.2,24.3,3.2s16.6-1.1,24.3-3.2c8-2.1,15.6-5.3,22.7-9.4c7.1-4.1,13.7-9.2,19.5-15
		s10.8-12.3,15-19.5c4.1-7,8.7-14.2,10.9-22.2c1.6-5.9,1.7-12.3,1.7-18.7c0-3,8.1-3.8,11.1-5.2h1.1
		C256.3,149.8,256.2,149.7,256,149.5z M240.7,154.9c-1,6.1-4,12-5.5,17.7c-2.1,7.8-2.1,15.2-6.1,22c-4,6.9-8.9,13.3-14.5,18.9
		s-12,10.5-18.9,14.5c-6.8,4-14.2,7-22,9.1c-7.5,2-15.5,3.1-23.6,3.1s-16.1-1.1-23.6-3.1c-7.8-2.1-15.2-5.2-22-9.1
		c-6.9-4-13.3-8.9-18.9-14.5s-10.5-12-14.5-18.9c-4-6.8-4-14.2-6.1-22c-1.5-5.7-4.5-11.6-5.5-17.7c-0.7-4.5-8.9-4.6-11.2-5.4
		c2.3-0.9,10.4-1,11.2-5.4c1-6.1,4-12,5.5-17.7c2.1-7.8,2.1-15.2,6.1-22c4-6.9,8.9-13.3,14.5-18.9s12-10.5,18.9-14.5
		c6.8-4,14.2-7,22-9.1c7.5-2,15.5-3.1,23.6-3.1s16.1,1.1,23.6,3.1c7.8,2.1,15.2,5.2,22,9.1c6.9,4,13.3,8.9,18.9,14.5
		s10.5,12,14.5,18.9c4,6.8,4,14.2,6.1,22c1.5,5.7,4.5,11.6,5.5,17.7c0.7,4.5,8.9,4.6,11.2,5.4C249.5,150.4,241.4,150.5,240.7,154.9z
		"/>
	<path fill="#FF0000" d="M264.7,149.5c0-0.2,0.1-0.3,0.1-0.5h-0.3c-2.1-3.4-15.3-2.7-15.6-5.6c-0.7-6.5-2-12.9-3.6-19.1
		c-2.3-8.5-3.8-17.7-8.1-25.1c-4.4-7.5-10.9-13.2-17-19.3c-6.1-6.1-13-11.4-20.5-15.8c-7.4-4.3-15.4-7.7-23.9-9.9
		c-8.2-2.2-16.8-3.4-25.7-3.4s-17.5,1.2-25.7,3.4c-8.5,2.3-16.5,5.6-23.9,9.9c-7.5,4.4-14.4,9.7-20.5,15.8
		c-6.1,6.1-12.6,11.8-17,19.3c-4.3,7.4-5.9,16.6-8.1,25.1c-1.6,6.1-3,12.5-3.6,19.1c-0.3,2.9-13.5,2.2-15.6,5.6h-0.3
		c0,0.2,0,0.3,0.1,0.5c0,0.2-0.1,0.3-0.1,0.5h0.3c2.1,3.4,15.3,2.7,15.6,5.6c0.7,6.5,2,12.9,3.6,19.1c2.3,8.5,3.8,17.7,8.1,25.1
		c4.4,7.5,10.9,13.2,17,19.3c6.1,6.1,13,11.4,20.5,15.8c7.4,4.3,15.4,7.7,23.9,9.9c8.2,2.2,16.8,3.4,25.7,3.4s17.5-1.2,25.7-3.4
		c8.5-2.3,16.5-5.6,23.9-9.9c7.5-4.4,14.4-9.7,20.5-15.8c6.1-6.1,12.6-11.8,17-19.3c4.3-7.4,5.9-16.6,8.1-25.1
		c1.6-6.1,3-12.5,3.6-19.1c0.3-2.9,13.5-2.2,15.6-5.6h0.3C264.8,149.8,264.7,149.7,264.7,149.5z M246.2,155.3
		c0,6.5-0.8,12.8-2.4,18.8c-2.2,8.2-7.4,15.3-11.6,22.5c-4.2,7.3-8.1,14.6-14.1,20.5c-5.9,5.9-12.6,11.1-19.9,15.3
		c-7.2,4.2-15,7.4-23.2,9.6c-8,2.1-16.3,3.3-24.9,3.3s-17-1.1-24.9-3.3c-8.2-2.2-16-5.5-23.2-9.6c-7.3-4.2-14-9.4-19.9-15.3
		c-5.9-5.9-9.9-13.2-14.1-20.5c-4.2-7.2-9.4-14.3-11.6-22.5c-1.6-6-2.4-12.3-2.4-18.8c0-4.5-13.5-3.8-15.4-5.8
		c1.9-2,15.4-1.3,15.4-5.8c0-6.5,0.8-12.8,2.4-18.8c2.2-8.2,7.4-15.3,11.6-22.5c4.2-7.3,8.1-14.6,14.1-20.5
		c5.9-5.9,12.6-11.1,19.9-15.3c7.2-4.2,15-7.4,23.2-9.6c8-2.1,16.3-3.3,24.9-3.3s17,1.1,24.9,3.3c8.2,2.2,16,5.5,23.2,9.6
		c7.3,4.2,14,9.4,19.9,15.3c5.9,5.9,9.9,13.2,14.1,20.5c4.2,7.2,9.4,14.3,11.6,22.5c1.6,6,2.4,12.3,2.4,18.8
		c0,4.5,13.5,3.8,15.4,5.8C259.7,151.5,246.2,150.8,246.2,155.3z"/>
</g>
<g id="Calque_5">
	<g id="Calque_2_11_">
		<g id="thinner_10_">
			<path fill="#FF0000" d="M451.9-129.1c-10.6,0-20.9,1.4-30.7,4c-10.1,2.7-19.7,6.7-28.6,11.9c-9,5.2-17.3,11.6-24.6,18.9
				c-7.3,7.3-13.7,15.6-18.9,24.6c-5.1,8.9-9.2,18.5-11.9,28.6c-2.6,9.8-4,20.1-4,30.7c0,10.6,1.4,20.9,4,30.7
				C340,30.4,344,40,349.1,48.9c5.2,9,11.6,17.3,18.9,24.6c7.3,7.3,15.6,13.7,24.6,18.9c8.9,5.1,18.5,9.2,28.6,11.9
				c9.8,2.6,20.1,4,30.7,4s20.9-1.4,30.7-4c10.1-2.7,19.7-6.7,28.6-11.9c9-5.2,17.3-11.6,24.6-18.9c7.3-7.3,13.7-15.6,18.9-24.6
				c5.1-8.9,9.2-18.5,11.9-28.6c2.6-9.8,4-20.1,4-30.7c0-10.6-1.4-20.9-4-30.7c-2.7-10.1-6.7-19.7-11.9-28.6
				c-5.2-9-11.6-17.3-18.9-24.6c-7.3-7.3-15.6-13.7-24.6-18.9c-8.9-5.1-18.5-9.2-28.6-11.9C472.9-127.7,462.6-129.1,451.9-129.1z
				 M451.9,104.8c-10.3,0-20.3-1.4-29.8-3.9c-9.8-2.6-19.2-6.5-27.8-11.5c-8.7-5.1-16.8-11.2-23.9-18.3
				c-7.1-7.1-13.3-15.1-18.3-23.9c-5-8.6-8.9-17.9-11.5-27.8c-2.5-9.5-3.9-19.5-3.9-29.8c0-10.3,1.4-20.3,3.9-29.8
				c2.6-9.8,6.5-19.2,11.5-27.8c5.1-8.7,11.2-16.8,18.3-23.9c7.1-7.1,15.1-13.3,23.9-18.3c8.6-5,17.9-8.9,27.8-11.5
				c9.5-2.5,19.5-3.9,29.8-3.9s20.3,1.4,29.8,3.9c9.9,2.6,19.3,6.6,27.9,11.6c8.7,5,16.7,11.2,23.8,18.3
				c7.1,7.1,13.3,15.1,18.3,23.9c5,8.6,8.9,17.9,11.5,27.8c2.5,9.5,3.9,19.5,3.9,29.8c0,10.3-1.4,20.3-3.9,29.8
				c-2.6,9.8-6.5,19.2-11.5,27.8c-5.1,8.7-11.2,16.8-18.3,23.9c-7.1,7.1-15.1,13.3-23.9,18.3c-8.6,5-17.9,8.9-27.8,11.5
				C472.2,103.4,462.2,104.8,451.9,104.8C451.9,104.8,451.9,104.8,451.9,104.8z"/>
		</g>
	</g>
</g>
</svg>
