<svg xmlns="http://www.w3.org/2000/svg" xmlns:xlink="http://www.w3.org/1999/xlink" viewBox="0 0 300 300"><defs><style>.cls-1{clip-path:url(#clip-path);}.cls-2{fill:none;}.cls-3{fill:#fff;}.cls-4{fill:#fdfdfd;}.cls-5{fill:#fafafa;}.cls-6{fill:#f8f8f8;}.cls-7{fill:#f5f5f5;}.cls-8{fill:#f3f3f3;}.cls-9{fill:#f0f0f0;}.cls-10{fill:#eee;}.cls-11{fill:#ececec;}.cls-12{fill:#e9e9e9;}.cls-13{fill:#e7e7e7;}.cls-14{fill:#e4e4e4;}.cls-15{fill:#e2e2e2;}.cls-16{fill:#e0e0e0;}.cls-17{fill:#dedede;}.cls-18{fill:#dbdbdb;}.cls-19{fill:#d9d9d9;}.cls-20{fill:#d7d7d7;}.cls-21{fill:#d5d5d5;}.cls-22{fill:#d2d2d2;}.cls-23{fill:#d0d0d0;}.cls-24{fill:#cecece;}.cls-25{fill:#ccc;}.cls-26{fill:#cacaca;}.cls-27{fill:#c7c7c7;}.cls-28{fill:#c5c5c5;}.cls-29{fill:#c3c3c3;}.cls-30{fill:#c1c1c1;}.cls-31{fill:#bfbfbf;}.cls-32{fill:#bdbdbd;}.cls-33{fill:#bbb;}.cls-34{fill:#b9b9b9;}.cls-35{fill:#b7b7b7;}.cls-36{fill:#b5b5b5;}.cls-37{fill:#b3b3b3;}.cls-38{fill:#b1b1b1;}.cls-39{fill:#afafaf;}.cls-40{fill:#adadad;}.cls-41{fill:#ababab;}.cls-42{fill:#a9a9a9;}.cls-43{fill:#a7a7a7;}.cls-44{fill:#a5a5a5;}.cls-45{fill:#a3a3a3;}.cls-46{fill:#a1a1a1;}.cls-47{fill:#9f9f9f;}.cls-48{fill:#9d9d9d;}.cls-49{fill:#9b9b9b;}.cls-50{fill:#9a9a9a;}.cls-51{fill:#989898;}.cls-52{fill:#969696;}.cls-53{fill:#949494;}.cls-54{fill:#929292;}.cls-55{fill:#909090;}.cls-56{fill:#8f8f8f;}.cls-57{fill:#8d8d8d;}.cls-58{fill:#8b8b8b;}.cls-59{fill:#898989;}.cls-60{fill:#888;}.cls-61{fill:#868686;}.cls-62{fill:#848484;}.cls-63{fill:#838383;}.cls-64{fill:#818181;}.cls-65{fill:#7f7f7f;}.cls-66{fill:#7e7e7e;}.cls-67{fill:#7c7c7c;}.cls-68{fill:#7b7b7b;}.cls-69{fill:#797979;}.cls-70{fill:#777;}.cls-71{fill:#767676;}.cls-72{fill:#747474;}.cls-73{fill:#737373;}.cls-74{fill:#717171;}.cls-75{fill:#707070;}.cls-76{fill:#6e6e6e;}.cls-77{fill:#6d6d6d;}.cls-78{fill:#6b6b6b;}.cls-79{fill:#6a6a6a;}.cls-80{fill:#686868;}.cls-81{fill:#676767;}.cls-82{fill:#656565;}.cls-83{fill:#646464;}.cls-84{fill:#626262;}.cls-85{fill:#616161;}.cls-86{fill:#606060;}.cls-87{fill:#5e5e5e;}.cls-88{fill:#5d5d5d;}.cls-89{fill:#5b5b5b;}.cls-90{fill:#5a5a5a;}.cls-91{fill:#595959;}.cls-92{fill:#575757;}.cls-93{fill:#565656;}.cls-94{fill:#555;}.cls-95{fill:#545454;}.cls-96{fill:#525252;}.cls-97{fill:#515151;}.cls-98{fill:#505050;}.cls-99{fill:#4f4f4f;}.cls-100{fill:#4d4d4d;}.cls-101{fill:#4c4c4c;}.cls-102{fill:#4b4b4b;}.cls-103{fill:#4a4a4a;}.cls-104{fill:#494949;}.cls-105{fill:#474747;}.cls-106{fill:#464646;}.cls-107{fill:#454545;}.cls-108{fill:#444;}.cls-109{fill:#434343;}.cls-110{fill:#424242;}.cls-111{fill:#414141;}.cls-112{fill:#3f3f3f;}.cls-113{fill:#3e3e3e;}.cls-114{fill:#3d3d3d;}.cls-115{fill:#3c3c3c;}.cls-116{fill:#3b3b3b;}.cls-117{fill:#3a3a3a;}.cls-118{fill:#393939;}.cls-119{fill:#383838;}.cls-120{fill:#373737;}.cls-121{fill:#363636;}.cls-122{fill:#353535;}.cls-123{fill:#343434;}.cls-124{fill:#333;}.cls-125{fill:#323232;}.cls-126{fill:#313131;}.cls-127{fill:#303030;}.cls-128{fill:#2f2f2f;}.cls-129{fill:#2e2e2e;}.cls-130{fill:#2d2d2d;}.cls-131{fill:#2c2c2c;}.cls-132{fill:#2b2b2b;}.cls-133{fill:#2a2a2a;}.cls-134{fill:#292929;}.cls-135{fill:#282828;}.cls-136{fill:#272727;}.cls-137{fill:#262626;}.cls-138{fill:#252525;}.cls-139{fill:#242424;}.cls-140{fill:#232323;}.cls-141{fill:#222;}.cls-142{fill:#212121;}.cls-143{fill:#202020;}.cls-144{fill:#1f1f1f;}.cls-145{fill:#1e1e1e;}.cls-146{fill:#1d1d1d;}.cls-147{fill:#1c1c1c;}.cls-148{fill:#1b1b1b;}.cls-149{fill:#1a1a1a;}.cls-150{fill:#191919;}.cls-151{fill:#181818;}.cls-152{fill:#171717;}.cls-153{fill:#161616;}.cls-154{fill:#151515;}.cls-155{fill:#141414;}.cls-156{fill:#131313;}.cls-157{fill:#121212;}.cls-158{fill:#111;}.cls-159{fill:#101010;}.cls-160{fill:#0f0f0f;}.cls-161{fill:#0e0e0e;}.cls-162{fill:#0d0d0d;}.cls-163{fill:#0c0c0c;}.cls-164{fill:#0b0b0b;}.cls-165{fill:#0a0a0a;}.cls-166{fill:#090909;}.cls-167{fill:#080808;}.cls-168{fill:#070707;}.cls-169{fill:#060606;}.cls-170{fill:#050505;}.cls-171{fill:#040404;}.cls-172{fill:#030303;}.cls-173{fill:#020202;}.cls-174{fill:#010101;}.cls-175{mask:url(#mask);}</style><clipPath id="clip-path"><circle class="cls-2" cx="145.67" cy="145.67" r="150.33"/></clipPath><mask id="mask" x="-4.67" y="-4.67" width="304.67" height="304.67" maskUnits="userSpaceOnUse"><g class="cls-1"><rect class="cls-3" x="-4.67" y="-4.67" width="300.67" height="300.67"/><circle class="cls-3" cx="145.67" cy="145.67" r="150.33"/><circle class="cls-4" cx="145.67" cy="145.67" r="150.21"/><circle class="cls-5" cx="145.67" cy="145.67" r="150.09"/><circle class="cls-6" cx="145.67" cy="145.67" r="149.97"/><circle class="cls-7" cx="145.67" cy="145.67" r="149.85"/><circle class="cls-8" cx="145.67" cy="145.67" r="149.73"/><circle class="cls-9" cx="145.67" cy="145.67" r="149.61"/><circle class="cls-10" cx="145.67" cy="145.67" r="149.49"/><circle class="cls-11" cx="145.67" cy="145.67" r="149.37"/><circle class="cls-12" cx="145.67" cy="145.67" r="149.25"/><circle class="cls-13" cx="145.67" cy="145.67" r="149.13"/><circle class="cls-14" cx="145.67" cy="145.67" r="149.01"/><circle class="cls-15" cx="145.67" cy="145.67" r="148.89"/><circle class="cls-16" cx="145.67" cy="145.67" r="148.77"/><circle class="cls-17" cx="145.67" cy="145.67" r="148.65"/><circle class="cls-18" cx="145.67" cy="145.67" r="148.53"/><circle class="cls-19" cx="145.67" cy="145.67" r="148.41"/><circle class="cls-20" cx="145.67" cy="145.67" r="148.29"/><circle class="cls-21" cx="145.67" cy="145.67" r="148.17"/><circle class="cls-22" cx="145.67" cy="145.67" r="148.05"/><circle class="cls-23" cx="145.67" cy="145.67" r="147.93"/><circle class="cls-24" cx="145.67" cy="145.67" r="147.81"/><circle class="cls-25" cx="145.67" cy="145.67" r="147.69"/><circle class="cls-26" cx="145.67" cy="145.67" r="147.57"/><circle class="cls-27" cx="145.67" cy="145.67" r="147.45"/><circle class="cls-28" cx="145.67" cy="145.67" r="147.33"/><circle class="cls-29" cx="145.67" cy="145.67" r="147.21"/><circle class="cls-30" cx="145.67" cy="145.67" r="147.09"/><circle class="cls-31" cx="145.67" cy="145.67" r="146.97"/><circle class="cls-32" cx="145.67" cy="145.67" r="146.85"/><circle class="cls-33" cx="145.67" cy="145.67" r="146.73"/><circle class="cls-34" cx="145.67" cy="145.67" r="146.61"/><circle class="cls-35" cx="145.67" cy="145.67" r="146.49"/><circle class="cls-36" cx="145.67" cy="145.67" r="146.36"/><circle class="cls-37" cx="145.67" cy="145.67" r="146.24"/><circle class="cls-38" cx="145.67" cy="145.67" r="146.12"/><circle class="cls-39" cx="145.67" cy="145.67" r="146"/><circle class="cls-40" cx="145.67" cy="145.67" r="145.88"/><circle class="cls-41" cx="145.67" cy="145.67" r="145.76"/><circle class="cls-42" cx="145.67" cy="145.67" r="145.64"/><circle class="cls-43" cx="145.67" cy="145.67" r="145.52"/><circle class="cls-44" cx="145.67" cy="145.67" r="145.4"/><circle class="cls-45" cx="145.67" cy="145.67" r="145.28"/><circle class="cls-46" cx="145.67" cy="145.67" r="145.16"/><circle class="cls-47" cx="145.67" cy="145.67" r="145.04"/><circle class="cls-48" cx="145.67" cy="145.67" r="144.92"/><circle class="cls-49" cx="145.67" cy="145.67" r="144.8"/><circle class="cls-50" cx="145.67" cy="145.67" r="144.68"/><circle class="cls-51" cx="145.67" cy="145.67" r="144.56"/><circle class="cls-52" cx="145.67" cy="145.67" r="144.44"/><circle class="cls-53" cx="145.67" cy="145.67" r="144.32"/><circle class="cls-54" cx="145.67" cy="145.67" r="144.2"/><circle class="cls-55" cx="145.67" cy="145.67" r="144.08"/><circle class="cls-56" cx="145.67" cy="145.67" r="143.96"/><circle class="cls-57" cx="145.67" cy="145.67" r="143.84"/><circle class="cls-58" cx="145.67" cy="145.67" r="143.72"/><circle class="cls-59" cx="145.67" cy="145.67" r="143.6"/><circle class="cls-60" cx="145.67" cy="145.67" r="143.48"/><circle class="cls-61" cx="145.67" cy="145.67" r="143.36"/><circle class="cls-62" cx="145.67" cy="145.67" r="143.24"/><circle class="cls-63" cx="145.67" cy="145.67" r="143.12"/><circle class="cls-64" cx="145.67" cy="145.67" r="143"/><circle class="cls-65" cx="145.67" cy="145.67" r="142.88"/><circle class="cls-66" cx="145.67" cy="145.67" r="142.76"/><circle class="cls-67" cx="145.67" cy="145.67" r="142.64"/><circle class="cls-68" cx="145.67" cy="145.67" r="142.52"/><circle class="cls-69" cx="145.67" cy="145.67" r="142.4"/><circle class="cls-70" cx="145.67" cy="145.67" r="142.28"/><circle class="cls-71" cx="145.67" cy="145.67" r="142.16"/><circle class="cls-72" cx="145.67" cy="145.67" r="142.04"/><circle class="cls-73" cx="145.67" cy="145.67" r="141.92"/><circle class="cls-74" cx="145.67" cy="145.67" r="141.8"/><circle class="cls-75" cx="145.67" cy="145.67" r="141.67"/><circle class="cls-76" cx="145.67" cy="145.67" r="141.55"/><circle class="cls-77" cx="145.67" cy="145.67" r="141.43"/><circle class="cls-78" cx="145.67" cy="145.67" r="141.31"/><circle class="cls-79" cx="145.67" cy="145.67" r="141.19"/><circle class="cls-80" cx="145.67" cy="145.67" r="141.07"/><circle class="cls-81" cx="145.67" cy="145.67" r="140.95"/><circle class="cls-82" cx="145.67" cy="145.67" r="140.83"/><circle class="cls-83" cx="145.67" cy="145.67" r="140.71"/><circle class="cls-84" cx="145.67" cy="145.67" r="140.59"/><circle class="cls-85" cx="145.67" cy="145.67" r="140.47"/><circle class="cls-86" cx="145.67" cy="145.67" r="140.35"/><circle class="cls-87" cx="145.67" cy="145.67" r="140.23"/><circle class="cls-88" cx="145.67" cy="145.67" r="140.11"/><circle class="cls-89" cx="145.67" cy="145.67" r="139.99"/><circle class="cls-90" cx="145.67" cy="145.67" r="139.87"/><circle class="cls-91" cx="145.67" cy="145.67" r="139.75"/><circle class="cls-92" cx="145.67" cy="145.67" r="139.63"/><circle class="cls-93" cx="145.67" cy="145.67" r="139.51"/><circle class="cls-94" cx="145.67" cy="145.67" r="139.39"/><circle class="cls-95" cx="145.67" cy="145.67" r="139.27"/><circle class="cls-96" cx="145.67" cy="145.67" r="139.15"/><circle class="cls-97" cx="145.67" cy="145.67" r="139.03"/><circle class="cls-98" cx="145.67" cy="145.67" r="138.91"/><circle class="cls-99" cx="145.67" cy="145.67" r="138.79"/><circle class="cls-100" cx="145.67" cy="145.67" r="138.67"/><circle class="cls-101" cx="145.67" cy="145.67" r="138.55"/><circle class="cls-102" cx="145.67" cy="145.67" r="138.43"/><circle class="cls-103" cx="145.67" cy="145.67" r="138.31"/><circle class="cls-104" cx="145.67" cy="145.67" r="138.19"/><circle class="cls-105" cx="145.67" cy="145.67" r="138.07"/><circle class="cls-106" cx="145.67" cy="145.67" r="137.95"/><circle class="cls-107" cx="145.67" cy="145.67" r="137.83"/><circle class="cls-108" cx="145.67" cy="145.67" r="137.71"/><circle class="cls-109" cx="145.67" cy="145.67" r="137.59"/><circle class="cls-110" cx="145.67" cy="145.67" r="137.47"/><circle class="cls-111" cx="145.67" cy="145.67" r="137.35"/><circle class="cls-112" cx="145.67" cy="145.67" r="137.23"/><circle class="cls-113" cx="145.67" cy="145.67" r="137.11"/><circle class="cls-114" cx="145.67" cy="145.67" r="136.99"/><circle class="cls-115" cx="145.67" cy="145.67" r="136.86"/><circle class="cls-116" cx="145.67" cy="145.67" r="136.74"/><circle class="cls-117" cx="145.67" cy="145.67" r="136.62"/><circle class="cls-118" cx="145.67" cy="145.67" r="136.5"/><circle class="cls-119" cx="145.67" cy="145.67" r="136.38"/><circle class="cls-120" cx="145.67" cy="145.67" r="136.26"/><circle class="cls-121" cx="145.67" cy="145.67" r="136.14"/><circle class="cls-122" cx="145.67" cy="145.67" r="136.02"/><circle class="cls-123" cx="145.67" cy="145.67" r="135.9"/><circle class="cls-124" cx="145.67" cy="145.67" r="135.78"/><circle class="cls-125" cx="145.67" cy="145.67" r="135.66"/><circle class="cls-126" cx="145.67" cy="145.67" r="135.54"/><circle class="cls-127" cx="145.67" cy="145.67" r="135.42"/><circle class="cls-127" cx="145.67" cy="145.67" r="135.3"/><circle class="cls-128" cx="145.67" cy="145.67" r="135.18"/><circle class="cls-129" cx="145.67" cy="145.67" r="135.06"/><circle class="cls-130" cx="145.67" cy="145.67" r="134.94"/><circle class="cls-131" cx="145.67" cy="145.67" r="134.82"/><circle class="cls-132" cx="145.67" cy="145.67" r="134.7"/><circle class="cls-133" cx="145.67" cy="145.67" r="134.58"/><circle class="cls-134" cx="145.67" cy="145.67" r="134.46"/><circle class="cls-134" cx="145.67" cy="145.67" r="134.34"/><circle class="cls-135" cx="145.67" cy="145.67" r="134.22"/><circle class="cls-136" cx="145.67" cy="145.67" r="134.1"/><circle class="cls-137" cx="145.67" cy="145.67" r="133.98"/><circle class="cls-138" cx="145.67" cy="145.67" r="133.86"/><circle class="cls-138" cx="145.67" cy="145.67" r="133.74"/><circle class="cls-139" cx="145.67" cy="145.67" r="133.62"/><circle class="cls-140" cx="145.67" cy="145.67" r="133.5"/><circle class="cls-141" cx="145.67" cy="145.67" r="133.38"/><circle class="cls-142" cx="145.67" cy="145.67" r="133.26"/><circle class="cls-142" cx="145.67" cy="145.67" r="133.14"/><circle class="cls-143" cx="145.67" cy="145.67" r="133.02"/><circle class="cls-144" cx="145.67" cy="145.67" r="132.9"/><circle class="cls-144" cx="145.67" cy="145.67" r="132.78"/><circle class="cls-145" cx="145.67" cy="145.67" r="132.66"/><circle class="cls-146" cx="145.67" cy="145.67" r="132.54"/><circle class="cls-146" cx="145.67" cy="145.67" r="132.42"/><circle class="cls-147" cx="145.67" cy="145.67" r="132.3"/><circle class="cls-148" cx="145.67" cy="145.67" r="132.17"/><circle class="cls-148" cx="145.67" cy="145.67" r="132.05"/><circle class="cls-149" cx="145.67" cy="145.67" r="131.93"/><circle class="cls-150" cx="145.67" cy="145.67" r="131.81"/><circle class="cls-150" cx="145.67" cy="145.67" r="131.69"/><circle class="cls-151" cx="145.67" cy="145.67" r="131.57"/><circle class="cls-152" cx="145.67" cy="145.67" r="131.45"/><circle class="cls-152" cx="145.67" cy="145.67" r="131.33"/><circle class="cls-153" cx="145.67" cy="145.67" r="131.21"/><circle class="cls-153" cx="145.67" cy="145.67" r="131.09"/><circle class="cls-154" cx="145.67" cy="145.67" r="130.97"/><circle class="cls-154" cx="145.67" cy="145.67" r="130.85"/><circle class="cls-155" cx="145.67" cy="145.67" r="130.73"/><circle class="cls-156" cx="145.67" cy="145.67" r="130.61"/><circle class="cls-156" cx="145.67" cy="145.67" r="130.49"/><circle class="cls-157" cx="145.67" cy="145.67" r="130.37"/><circle class="cls-157" cx="145.67" cy="145.67" r="130.25"/><circle class="cls-158" cx="145.67" cy="145.67" r="130.13"/><circle class="cls-158" cx="145.67" cy="145.67" r="130.01"/><circle class="cls-159" cx="145.67" cy="145.67" r="129.89"/><circle class="cls-159" cx="145.67" cy="145.67" r="129.77"/><circle class="cls-160" cx="145.67" cy="145.67" r="129.65"/><circle class="cls-160" cx="145.67" cy="145.67" r="129.53"/><circle class="cls-160" cx="145.67" cy="145.67" r="129.41"/><circle class="cls-161" cx="145.67" cy="145.67" r="129.29"/><circle class="cls-161" cx="145.67" cy="145.67" r="129.17"/><circle class="cls-162" cx="145.67" cy="145.67" r="129.05"/><circle class="cls-162" cx="145.67" cy="145.67" r="128.93"/><circle class="cls-163" cx="145.67" cy="145.67" r="128.81"/><circle class="cls-163" cx="145.67" cy="145.67" r="128.69"/><circle class="cls-163" cx="145.67" cy="145.67" r="128.57"/><circle class="cls-164" cx="145.67" cy="145.67" r="128.45"/><circle class="cls-164" cx="145.67" cy="145.67" r="128.33"/><circle class="cls-165" cx="145.67" cy="145.67" r="128.21"/><circle class="cls-165" cx="145.67" cy="145.67" r="128.09"/><circle class="cls-165" cx="145.67" cy="145.67" r="127.97"/><circle class="cls-166" cx="145.67" cy="145.67" r="127.85"/><circle class="cls-166" cx="145.67" cy="145.67" r="127.73"/><circle class="cls-166" cx="145.67" cy="145.67" r="127.61"/><circle class="cls-167" cx="145.67" cy="145.67" r="127.48"/><circle class="cls-167" cx="145.67" cy="145.67" r="127.36"/><circle class="cls-167" cx="145.67" cy="145.67" r="127.24"/><circle class="cls-168" cx="145.67" cy="145.67" r="127.12"/><circle class="cls-168" cx="145.67" cy="145.67" r="127"/><circle class="cls-168" cx="145.67" cy="145.67" r="126.88"/><circle class="cls-168" cx="145.67" cy="145.67" r="126.76"/><circle class="cls-169" cx="145.67" cy="145.67" r="126.64"/><circle class="cls-169" cx="145.67" cy="145.67" r="126.52"/><circle class="cls-169" cx="145.67" cy="145.67" r="126.4"/><circle class="cls-170" cx="145.67" cy="145.67" r="126.28"/><circle class="cls-170" cx="145.67" cy="145.67" r="126.16"/><circle class="cls-170" cx="145.67" cy="145.67" r="126.04"/><circle class="cls-170" cx="145.67" cy="145.67" r="125.92"/><circle class="cls-170" cx="145.67" cy="145.67" r="125.8"/><circle class="cls-171" cx="145.67" cy="145.67" r="125.68"/><circle class="cls-171" cx="145.67" cy="145.67" r="125.56"/><circle class="cls-171" cx="145.67" cy="145.67" r="125.44"/><circle class="cls-171" cx="145.67" cy="145.67" r="125.32"/><circle class="cls-172" cx="145.67" cy="145.67" r="125.2"/><circle class="cls-172" cx="145.67" cy="145.67" r="125.08"/><circle class="cls-172" cx="145.67" cy="145.67" r="124.96"/><circle class="cls-172" cx="145.67" cy="145.67" r="124.84"/><circle class="cls-172" cx="145.67" cy="145.67" r="124.72"/><circle class="cls-172" cx="145.67" cy="145.67" r="124.6"/><circle class="cls-173" cx="145.67" cy="145.67" r="124.48"/><circle class="cls-173" cx="145.67" cy="145.67" r="124.36"/><circle class="cls-173" cx="145.67" cy="145.67" r="124.24"/><circle class="cls-173" cx="145.67" cy="145.67" r="124.12"/><circle class="cls-173" cx="145.67" cy="145.67" r="124"/><circle class="cls-173" cx="145.67" cy="145.67" r="123.88"/><circle class="cls-173" cx="145.67" cy="145.67" r="123.76"/><circle class="cls-174" cx="145.67" cy="145.67" r="123.64"/><circle class="cls-174" cx="145.67" cy="145.67" r="123.52"/><circle class="cls-174" cx="145.67" cy="145.67" r="123.4"/><circle class="cls-174" cx="145.67" cy="145.67" r="123.28"/><circle class="cls-174" cx="145.67" cy="145.67" r="123.16"/><circle class="cls-174" cx="145.67" cy="145.67" r="123.04"/><circle class="cls-174" cx="145.67" cy="145.67" r="122.92"/><circle class="cls-174" cx="145.67" cy="145.67" r="122.79"/><circle class="cls-174" cx="145.67" cy="145.67" r="122.67"/><circle class="cls-174" cx="145.67" cy="145.67" r="122.55"/><circle class="cls-174" cx="145.67" cy="145.67" r="122.43"/><circle class="cls-174" cx="145.67" cy="145.67" r="122.31"/><circle cx="145.67" cy="145.67" r="122.19"/><circle cx="145.67" cy="145.67" r="122.07"/><circle cx="145.67" cy="145.67" r="121.95"/><circle cx="145.67" cy="145.67" r="121.83"/><circle cx="145.67" cy="145.67" r="121.71"/><circle cx="145.67" cy="145.67" r="121.59"/><circle cx="145.67" cy="145.67" r="121.47"/><circle cx="145.67" cy="145.67" r="121.35"/><circle cx="145.67" cy="145.67" r="121.23"/><circle cx="145.67" cy="145.67" r="121.11"/><circle cx="145.67" cy="145.67" r="120.99"/><circle cx="145.67" cy="145.67" r="120.87"/><circle cx="145.67" cy="145.67" r="120.75"/><circle cx="145.67" cy="145.67" r="120.63"/><circle cx="145.67" cy="145.67" r="120.51"/><circle cx="145.67" cy="145.67" r="120.39"/><circle cx="145.67" cy="145.67" r="120.27"/><circle cx="145.67" cy="145.67" r="120.15"/><circle cx="145.67" cy="145.67" r="120.03"/><circle cx="145.67" cy="145.67" r="119.91"/><circle cx="145.67" cy="145.67" r="119.79"/></g></mask></defs><title>round-mask-inset-inverted</title><g id="Calque_2" data-name="Calque 2"><g id="Calque_2-2" data-name="Calque 2"><g class="cls-175"><circle cx="150" cy="150" r="150"/></g></g></g></svg>